#!OML:ASF G:\JayActor3\Patient Classification 1\Patient 1\Session 5\male.ASF
:FULLY-SPECIFIED
:DEGREES
2054
root -34.5575 16.5925 -20.8345 -362.284 -62.4642 357.453
lowerback 4.14929 -1.99073 -2.4134
upperback 5.12002 -2.76425 -1.42605
thorax 2.99156 -1.47593 -0.0812181
lowerneck -7.40218 -0.332533 2.39541
upperneck 7.27219 -0.573847 -1.64147
head 3.67196 -0.291328 -0.999514
rclavicle -7.06679e-014 4.77083e-015
rhumerus -30.4232 -10.6149 -85.082
rradius 20.9052
rwrist 9.53343
rhand -20.2193 -9.71778
rfingers 7.12502
rthumb 6.12813 -39.6091
lclavicle -7.06679e-014 4.77083e-015
lhumerus -27.2092 -12.6092 91.1508
lradius 60.6005
lwrist 31.7119
lhand -21.031 13.6967
lfingers 7.12502
lthumb 5.34443 43.6093
rfemur -29.8099 8.38794 23.6229
rtibia 54.8449
rfoot -21.6521 -14.5194
rtoes -15.749
lfemur 6.05024 13.6768 -25.0495
ltibia 19.8925
lfoot -19.3597 3.57551
ltoes -3.68345
2055
root -34.6075 16.6101 -20.7874 -362.37 -62.0309 357.609
lowerback 4.09805 -2.03331 -2.52364
upperback 5.12363 -2.82036 -1.43436
thorax 3.03036 -1.50749 -0.0301573
lowerneck -7.32404 -0.40677 2.33457
upperneck 7.26477 -0.668808 -1.59908
head 3.65159 -0.338089 -0.978898
rclavicle -3.00165e-014 -6.36111e-015
rhumerus -30.6908 -11.0775 -84.7912
rradius 20.6669
rwrist 9.79869
rhand -20.2249 -9.74059
rfingers 7.12502
rthumb 6.12273 -39.6321
lclavicle -3.00165e-014 -6.36111e-015
lhumerus -27.1732 -13.3469 91.3396
lradius 62.7906
lwrist 32.3517
lhand -20.9847 13.6369
lfingers 7.12502
lthumb 5.38914 43.5483
rfemur -29.8916 9.67749 23.716
rtibia 53.4203
rfoot -21.4217 -14.4716
rtoes -17.5189
lfemur 6.8227 13.7068 -25.0617
ltibia 18.8159
lfoot -18.7779 2.92153
ltoes -3.63368
2056
root -34.6574 16.6279 -20.7403 -362.445 -61.5822 357.754
lowerback 4.0551 -2.08037 -2.62383
upperback 5.12322 -2.88245 -1.4405
thorax 3.06027 -1.54163 0.0179652
lowerneck -7.2341 -0.478806 2.2827
upperneck 7.25162 -0.760479 -1.57031
head 3.62713 -0.383576 -0.964013
rclavicle -7.65321e-015 7.95139e-015
rhumerus -30.9634 -11.4976 -84.513
rradius 20.4582
rwrist 10.0147
rhand -20.2331 -9.7585
rfingers 7.12502
rthumb 6.11477 -39.6503
lclavicle -7.65321e-015 7.95139e-015
lhumerus -27.1108 -14.0813 91.5185
lradius 64.9592
lwrist 33.0041
lhand -20.8068 13.4881
lfingers 7.12502
lthumb 5.56092 43.3951
rfemur -29.9174 11.0125 23.7709
rtibia 51.9413
rfoot -21.1664 -14.4448
rtoes -19.505
lfemur 7.64407 13.7368 -25.0599
ltibia 17.6542
lfoot -18.173 2.292
ltoes -3.48644
2057
root -34.7072 16.647 -20.6931 -362.509 -61.1207 357.883
lowerback 4.01889 -2.12977 -2.71361
upperback 5.12273 -2.94769 -1.44266
thorax 3.08627 -1.57707 0.0646149
lowerneck -7.1264 -0.55103 2.23481
upperneck 7.22204 -0.851752 -1.55122
head 3.59354 -0.429195 -0.952634
rclavicle -2.43511e-014 -7.95139e-016
rhumerus -31.2334 -11.8709 -84.249
rradius 20.2774
rwrist 10.1783
rhand -20.236 -9.7687
rfingers 7.12502
rthumb 6.112 -39.6605
lclavicle -2.43511e-014 -7.95139e-016
lhumerus -27.0118 -14.8122 91.6882
lradius 67.1022
lwrist 33.6359
lhand -20.5861 13.3264
lfingers 7.12502
lthumb 5.77394 43.2278
rfemur -29.9202 12.2056 23.7901
rtibia 50.4694
rfoot -20.8599 -14.3809
rtoes -20.4622
lfemur 8.53229 13.7672 -25.0407
ltibia 16.3783
lfoot -17.5231 1.70452
ltoes -3.34039
2058
root -34.7569 16.667 -20.646 -362.563 -60.6475 357.996
lowerback 3.9886 -2.1867 -2.801
upperback 5.12414 -3.02321 -1.43766
thorax 3.11166 -1.61773 0.117459
lowerneck -7.01027 -0.617782 2.17586
upperneck 7.1823 -0.934845 -1.52779
head 3.55508 -0.470909 -0.937158
rclavicle -2.24627e-014 1.03368e-014
rhumerus -31.4941 -12.1987 -83.9995
rradius 20.1219
rwrist 10.3119
rhand -20.2288 -9.76608
rfingers 7.12502
rthumb 6.11889 -39.6577
lclavicle -2.24627e-014 1.03368e-014
lhumerus -26.8744 -15.5222 91.845
lradius 69.2259
lwrist 34.2099
lhand -20.4199 13.2082
lfingers 7.12502
lthumb 5.93447 43.1051
rfemur -29.8677 13.3666 23.7847
rtibia 48.9756
rfoot -20.5446 -14.3498
rtoes -21.2381
lfemur 9.55105 13.8088 -24.9983
ltibia 14.8736
lfoot -16.788 1.17393
ltoes -3.19238
2059
root -34.8069 16.6899 -20.5988 -362.609 -60.1669 358.093
lowerback 3.96725 -2.24438 -2.87852
upperback 5.12532 -3.09994 -1.42958
thorax 3.1317 -1.6587 0.168323
lowerneck -6.87473 -0.685249 2.11569
upperneck 7.12792 -1.01854 -1.5046
head 3.50786 -0.512976 -0.92115
rclavicle -4.63168e-014 1.03368e-014
rhumerus -31.7506 -12.4813 -83.7703
rradius 19.9923
rwrist 10.394
rhand -20.2069 -9.76733
rfingers 7.12502
rthumb 6.14007 -39.6583
lclavicle -4.63168e-014 1.03368e-014
lhumerus -26.705 -16.2338 91.9919
lradius 71.3348
lwrist 34.6815
lhand -20.2866 13.097
lfingers 7.12502
lthumb 6.06309 42.9902
rfemur -29.7399 14.607 23.741
rtibia 47.4477
rfoot -20.2483 -14.4236
rtoes -22.0407
lfemur 10.7358 13.8512 -24.9393
ltibia 13.0724
lfoot -15.9235 0.754788
ltoes -3.45682
2060
root -34.8573 16.7207 -20.5514 -362.648 -59.6829 358.173
lowerback 3.95059 -2.30648 -2.95622
upperback 5.12612 -3.18282 -1.41517
thorax 3.14951 -1.70285 0.225962
lowerneck -6.71758 -0.747721 2.05387
upperneck 7.05978 -1.09496 -1.48407
head 3.45199 -0.5516 -0.904911
rclavicle -9.0447e-015 1.03368e-014
rhumerus -32.0008 -12.7255 -83.5574
rradius 19.8859
rwrist 10.4561
rhand -20.2005 -9.76959
rfingers 7.12502
rthumb 6.14624 -39.6604
lclavicle -9.0447e-015 1.03368e-014
lhumerus -26.505 -16.9434 92.1304
lradius 73.4352
lwrist 35.043
lhand -20.204 13.0347
lfingers 7.12502
lthumb 6.14285 42.9257
rfemur -29.5086 16.1787 23.6318
rtibia 45.8681
rfoot -20.0426 -14.7886
rtoes -22.7825
lfemur 12.1121 13.9058 -24.8601
ltibia 10.92
lfoot -14.9069 0.435076
ltoes -3.96476
